<mxfile host="app.diagrams.net" modified="2023-10-24T08:56:59.283Z" agent="Mozilla/5.0 (X11; Linux x86_64) AppleWebKit/537.36 (KHTML, like Gecko) Chrome/117.0.0.0 Safari/537.36 Edg/117.0.2045.55" etag="cMycYhAfaCYkyYHL-scu" version="22.0.6" type="github">
  <diagram name="第 1 页" id="ugtEYNCoT0SjDMXIqZ7P">
    <mxGraphModel dx="1170" dy="674" grid="0" gridSize="10" guides="1" tooltips="1" connect="1" arrows="0" fold="1" page="1" pageScale="1" pageWidth="827" pageHeight="1169" math="0" shadow="0">
      <root>
        <mxCell id="0" />
        <mxCell id="1" parent="0" />
        <mxCell id="4O2xok6CmJAqFDJH463R-100" value="&lt;font style=&quot;font-size: 18px;&quot;&gt;total size&lt;/font&gt;" style="rounded=0;whiteSpace=wrap;html=1;fillColor=#dae8fc;strokeColor=default;" parent="1" vertex="1">
          <mxGeometry x="143" y="171" width="155" height="39" as="geometry" />
        </mxCell>
        <mxCell id="4O2xok6CmJAqFDJH463R-101" value="&lt;font style=&quot;font-size: 18px;&quot;&gt;version&lt;/font&gt;" style="rounded=0;whiteSpace=wrap;html=1;fillColor=#dae8fc;strokeColor=default;" parent="1" vertex="1">
          <mxGeometry x="143" y="93" width="155" height="39" as="geometry" />
        </mxCell>
        <mxCell id="4O2xok6CmJAqFDJH463R-102" value="&lt;font style=&quot;font-size: 18px;&quot;&gt;bb num&lt;/font&gt;" style="rounded=0;whiteSpace=wrap;html=1;" parent="1" vertex="1">
          <mxGeometry x="393" y="155" width="155" height="39" as="geometry" />
        </mxCell>
        <mxCell id="4O2xok6CmJAqFDJH463R-104" value="&lt;font style=&quot;font-size: 18px;&quot;&gt;symbol&lt;br&gt;table&lt;br&gt;&lt;/font&gt;" style="rounded=0;whiteSpace=wrap;html=1;fillColor=#f8cecc;strokeColor=default;" parent="1" vertex="1">
          <mxGeometry x="143" y="415" width="155" height="88" as="geometry" />
        </mxCell>
        <mxCell id="4O2xok6CmJAqFDJH463R-107" value="&lt;font style=&quot;font-size: 18px;&quot;&gt;func&lt;/font&gt;" style="rounded=0;whiteSpace=wrap;html=1;fillColor=#fff2cc;strokeColor=default;" parent="1" vertex="1">
          <mxGeometry x="143" y="327" width="155" height="88" as="geometry" />
        </mxCell>
        <mxCell id="4O2xok6CmJAqFDJH463R-114" value="" style="strokeWidth=2;html=1;shape=mxgraph.flowchart.annotation_2;align=left;labelPosition=right;pointerEvents=1;" parent="1" vertex="1">
          <mxGeometry x="85" y="94" width="20" height="233" as="geometry" />
        </mxCell>
        <mxCell id="4O2xok6CmJAqFDJH463R-115" value="&lt;font style=&quot;font-size: 18px;&quot;&gt;header&lt;/font&gt;" style="text;html=1;align=center;verticalAlign=middle;resizable=0;points=[];autosize=1;strokeColor=none;fillColor=none;" parent="1" vertex="1">
          <mxGeometry x="15" y="193" width="74" height="34" as="geometry" />
        </mxCell>
        <mxCell id="4O2xok6CmJAqFDJH463R-119" value="&lt;font style=&quot;font-size: 18px;&quot;&gt;symbol offset&lt;/font&gt;" style="rounded=0;whiteSpace=wrap;html=1;" parent="1" vertex="1">
          <mxGeometry x="393" y="194" width="155" height="39" as="geometry" />
        </mxCell>
        <mxCell id="4O2xok6CmJAqFDJH463R-120" value="&lt;font style=&quot;font-size: 18px;&quot;&gt;bb 0&lt;/font&gt;" style="rounded=0;whiteSpace=wrap;html=1;" parent="1" vertex="1">
          <mxGeometry x="393" y="233" width="155" height="39" as="geometry" />
        </mxCell>
        <mxCell id="4O2xok6CmJAqFDJH463R-121" value="&lt;font style=&quot;font-size: 18px;&quot;&gt;bb 1&lt;/font&gt;" style="rounded=0;whiteSpace=wrap;html=1;" parent="1" vertex="1">
          <mxGeometry x="393" y="272" width="155" height="39" as="geometry" />
        </mxCell>
        <mxCell id="4O2xok6CmJAqFDJH463R-122" value="&lt;font style=&quot;font-size: 18px;&quot;&gt;...&lt;/font&gt;" style="rounded=0;whiteSpace=wrap;html=1;" parent="1" vertex="1">
          <mxGeometry x="393" y="311" width="155" height="39" as="geometry" />
        </mxCell>
        <mxCell id="4O2xok6CmJAqFDJH463R-123" value="&lt;font style=&quot;font-size: 18px;&quot;&gt;bb n&lt;/font&gt;" style="rounded=0;whiteSpace=wrap;html=1;" parent="1" vertex="1">
          <mxGeometry x="393" y="350" width="155" height="39" as="geometry" />
        </mxCell>
        <mxCell id="4O2xok6CmJAqFDJH463R-124" value="&lt;font style=&quot;font-size: 18px;&quot;&gt;bb type&lt;/font&gt;" style="rounded=0;whiteSpace=wrap;html=1;" parent="1" vertex="1">
          <mxGeometry x="645" y="192" width="107" height="39" as="geometry" />
        </mxCell>
        <mxCell id="4O2xok6CmJAqFDJH463R-125" value="&lt;font style=&quot;font-size: 18px;&quot;&gt;start pc&lt;/font&gt;" style="rounded=0;whiteSpace=wrap;html=1;" parent="1" vertex="1">
          <mxGeometry x="645" y="231" width="107" height="39" as="geometry" />
        </mxCell>
        <mxCell id="4O2xok6CmJAqFDJH463R-126" value="&lt;font style=&quot;font-size: 18px;&quot;&gt;end pc&lt;/font&gt;" style="rounded=0;whiteSpace=wrap;html=1;" parent="1" vertex="1">
          <mxGeometry x="645" y="270" width="107" height="39" as="geometry" />
        </mxCell>
        <mxCell id="4O2xok6CmJAqFDJH463R-127" value="&lt;font style=&quot;font-size: 18px;&quot;&gt;target pc&lt;/font&gt;" style="rounded=0;whiteSpace=wrap;html=1;" parent="1" vertex="1">
          <mxGeometry x="645" y="309" width="107" height="39" as="geometry" />
        </mxCell>
        <mxCell id="4O2xok6CmJAqFDJH463R-128" value="&lt;font style=&quot;font-size: 18px;&quot;&gt;symbol offset&lt;/font&gt;" style="rounded=0;whiteSpace=wrap;html=1;" parent="1" vertex="1">
          <mxGeometry x="645" y="348" width="107" height="39" as="geometry" />
        </mxCell>
        <mxCell id="4O2xok6CmJAqFDJH463R-129" value="&lt;font style=&quot;font-size: 18px;&quot;&gt;symbol table offset&lt;/font&gt;" style="rounded=0;whiteSpace=wrap;html=1;fillColor=#dae8fc;strokeColor=default;" parent="1" vertex="1">
          <mxGeometry x="143" y="210" width="155" height="39" as="geometry" />
        </mxCell>
        <mxCell id="4O2xok6CmJAqFDJH463R-130" value="&lt;font style=&quot;font-size: 18px;&quot;&gt;4B&lt;/font&gt;" style="rounded=0;whiteSpace=wrap;html=1;" parent="1" vertex="1">
          <mxGeometry x="113" y="93" width="30" height="39" as="geometry" />
        </mxCell>
        <mxCell id="4O2xok6CmJAqFDJH463R-131" value="&lt;font style=&quot;font-size: 18px;&quot;&gt;4B&lt;/font&gt;" style="rounded=0;whiteSpace=wrap;html=1;" parent="1" vertex="1">
          <mxGeometry x="113" y="132" width="30" height="39" as="geometry" />
        </mxCell>
        <mxCell id="4O2xok6CmJAqFDJH463R-132" value="&lt;font style=&quot;font-size: 18px;&quot;&gt;4B&lt;/font&gt;" style="rounded=0;whiteSpace=wrap;html=1;" parent="1" vertex="1">
          <mxGeometry x="363" y="155" width="30" height="39" as="geometry" />
        </mxCell>
        <mxCell id="4O2xok6CmJAqFDJH463R-135" value="&lt;font style=&quot;font-size: 18px;&quot;&gt;8B&lt;/font&gt;" style="rounded=0;whiteSpace=wrap;html=1;" parent="1" vertex="1">
          <mxGeometry x="113" y="210" width="30" height="39" as="geometry" />
        </mxCell>
        <mxCell id="4O2xok6CmJAqFDJH463R-136" value="&lt;font style=&quot;font-size: 18px;&quot;&gt;4B&lt;/font&gt;" style="rounded=0;whiteSpace=wrap;html=1;" parent="1" vertex="1">
          <mxGeometry x="615" y="192" width="30" height="39" as="geometry" />
        </mxCell>
        <mxCell id="4O2xok6CmJAqFDJH463R-138" value="&lt;font style=&quot;font-size: 18px;&quot;&gt;8B&lt;/font&gt;" style="rounded=0;whiteSpace=wrap;html=1;" parent="1" vertex="1">
          <mxGeometry x="363" y="194" width="30" height="39" as="geometry" />
        </mxCell>
        <mxCell id="4O2xok6CmJAqFDJH463R-143" style="rounded=0;orthogonalLoop=1;jettySize=auto;html=1;exitX=1;exitY=0;exitDx=0;exitDy=0;entryX=0;entryY=0;entryDx=0;entryDy=0;endArrow=none;dashed=1;" parent="1" source="4O2xok6CmJAqFDJH463R-107" target="4O2xok6CmJAqFDJH463R-132" edge="1">
          <mxGeometry relative="1" as="geometry">
            <mxPoint x="297.9999999999998" y="464" as="sourcePoint" />
            <mxPoint x="370" y="404" as="targetPoint" />
          </mxGeometry>
        </mxCell>
        <mxCell id="4O2xok6CmJAqFDJH463R-144" style="rounded=0;orthogonalLoop=1;jettySize=auto;html=1;exitX=1;exitY=1;exitDx=0;exitDy=0;entryX=0;entryY=1;entryDx=0;entryDy=0;endArrow=none;dashed=1;" parent="1" source="4O2xok6CmJAqFDJH463R-107" target="4O2xok6CmJAqFDJH463R-123" edge="1">
          <mxGeometry relative="1" as="geometry">
            <mxPoint x="318" y="396" as="sourcePoint" />
            <mxPoint x="380" y="414" as="targetPoint" />
          </mxGeometry>
        </mxCell>
        <mxCell id="4O2xok6CmJAqFDJH463R-145" value="&lt;font style=&quot;font-size: 18px;&quot;&gt;8B&lt;/font&gt;" style="rounded=0;whiteSpace=wrap;html=1;" parent="1" vertex="1">
          <mxGeometry x="615" y="348" width="30" height="39" as="geometry" />
        </mxCell>
        <mxCell id="4O2xok6CmJAqFDJH463R-146" value="&lt;font style=&quot;font-size: 18px;&quot;&gt;8B&lt;/font&gt;" style="rounded=0;whiteSpace=wrap;html=1;" parent="1" vertex="1">
          <mxGeometry x="615" y="309" width="30" height="39" as="geometry" />
        </mxCell>
        <mxCell id="4O2xok6CmJAqFDJH463R-147" value="&lt;font style=&quot;font-size: 18px;&quot;&gt;8B&lt;/font&gt;" style="rounded=0;whiteSpace=wrap;html=1;" parent="1" vertex="1">
          <mxGeometry x="615" y="231" width="30" height="39" as="geometry" />
        </mxCell>
        <mxCell id="4O2xok6CmJAqFDJH463R-148" value="&lt;font style=&quot;font-size: 18px;&quot;&gt;8B&lt;/font&gt;" style="rounded=0;whiteSpace=wrap;html=1;" parent="1" vertex="1">
          <mxGeometry x="615" y="270" width="30" height="39" as="geometry" />
        </mxCell>
        <mxCell id="4O2xok6CmJAqFDJH463R-149" style="rounded=0;orthogonalLoop=1;jettySize=auto;html=1;exitX=1;exitY=0;exitDx=0;exitDy=0;entryX=0;entryY=0;entryDx=0;entryDy=0;endArrow=none;dashed=1;" parent="1" source="4O2xok6CmJAqFDJH463R-120" target="4O2xok6CmJAqFDJH463R-136" edge="1">
          <mxGeometry relative="1" as="geometry">
            <mxPoint x="311" y="239" as="sourcePoint" />
            <mxPoint x="373" y="204" as="targetPoint" />
          </mxGeometry>
        </mxCell>
        <mxCell id="4O2xok6CmJAqFDJH463R-150" style="rounded=0;orthogonalLoop=1;jettySize=auto;html=1;exitX=1;exitY=0;exitDx=0;exitDy=0;entryX=0;entryY=1;entryDx=0;entryDy=0;endArrow=none;dashed=1;" parent="1" source="4O2xok6CmJAqFDJH463R-121" target="4O2xok6CmJAqFDJH463R-145" edge="1">
          <mxGeometry relative="1" as="geometry">
            <mxPoint x="321" y="249" as="sourcePoint" />
            <mxPoint x="383" y="214" as="targetPoint" />
          </mxGeometry>
        </mxCell>
        <mxCell id="4O2xok6CmJAqFDJH463R-151" value="&lt;font style=&quot;font-size: 18px;&quot;&gt;header size&lt;/font&gt;" style="rounded=0;whiteSpace=wrap;html=1;fillColor=#dae8fc;strokeColor=default;" parent="1" vertex="1">
          <mxGeometry x="143" y="132" width="155" height="39" as="geometry" />
        </mxCell>
        <mxCell id="4O2xok6CmJAqFDJH463R-152" value="&lt;font style=&quot;font-size: 18px;&quot;&gt;8B&lt;/font&gt;" style="rounded=0;whiteSpace=wrap;html=1;" parent="1" vertex="1">
          <mxGeometry x="113" y="170.5" width="30" height="39" as="geometry" />
        </mxCell>
        <mxCell id="MSjgIvEJ1pBc1wAw4xOJ-1" value="&lt;font style=&quot;font-size: 18px;&quot;&gt;reserved space&lt;/font&gt;" style="rounded=0;whiteSpace=wrap;html=1;fillColor=#dae8fc;strokeColor=default;" parent="1" vertex="1">
          <mxGeometry x="143" y="288" width="155" height="39" as="geometry" />
        </mxCell>
        <mxCell id="MSjgIvEJ1pBc1wAw4xOJ-2" value="&lt;font style=&quot;font-size: 14px;&quot;&gt;32B&lt;/font&gt;" style="rounded=0;whiteSpace=wrap;html=1;" parent="1" vertex="1">
          <mxGeometry x="113" y="288" width="30" height="39" as="geometry" />
        </mxCell>
        <mxCell id="ZhhL7vkw0-_gBqO7Sj1o-1" value="&lt;font style=&quot;font-size: 16px;&quot;&gt;post domaintor offset&lt;/font&gt;" style="rounded=0;whiteSpace=wrap;html=1;fillColor=#dae8fc;strokeColor=default;" vertex="1" parent="1">
          <mxGeometry x="143" y="249" width="155" height="39" as="geometry" />
        </mxCell>
        <mxCell id="ZhhL7vkw0-_gBqO7Sj1o-3" value="&lt;font style=&quot;font-size: 18px;&quot;&gt;8B&lt;/font&gt;" style="rounded=0;whiteSpace=wrap;html=1;" vertex="1" parent="1">
          <mxGeometry x="113" y="249" width="30" height="39" as="geometry" />
        </mxCell>
        <mxCell id="ZhhL7vkw0-_gBqO7Sj1o-4" value="&lt;font style=&quot;font-size: 18px;&quot;&gt;post&lt;br&gt;domaintor&lt;br&gt;&lt;/font&gt;" style="rounded=0;whiteSpace=wrap;html=1;fillColor=#e1d5e7;strokeColor=#9673a6;" vertex="1" parent="1">
          <mxGeometry x="143" y="503" width="155" height="88" as="geometry" />
        </mxCell>
        <mxCell id="ZhhL7vkw0-_gBqO7Sj1o-31" value="" style="group" vertex="1" connectable="0" parent="1">
          <mxGeometry x="616" y="483" width="86" height="87" as="geometry" />
        </mxCell>
        <mxCell id="ZhhL7vkw0-_gBqO7Sj1o-6" value="x" style="whiteSpace=wrap;html=1;aspect=fixed;movable=1;resizable=1;rotatable=1;deletable=1;editable=1;locked=0;connectable=1;" vertex="1" parent="ZhhL7vkw0-_gBqO7Sj1o-31">
          <mxGeometry x="18" y="19" width="17" height="17" as="geometry" />
        </mxCell>
        <mxCell id="ZhhL7vkw0-_gBqO7Sj1o-7" value="&lt;font color=&quot;#ff0000&quot;&gt;a&lt;/font&gt;" style="whiteSpace=wrap;html=1;aspect=fixed;movable=1;resizable=1;rotatable=1;deletable=1;editable=1;locked=0;connectable=1;" vertex="1" parent="ZhhL7vkw0-_gBqO7Sj1o-31">
          <mxGeometry x="35" y="19" width="17" height="17" as="geometry" />
        </mxCell>
        <mxCell id="ZhhL7vkw0-_gBqO7Sj1o-8" value="x" style="whiteSpace=wrap;html=1;aspect=fixed;movable=1;resizable=1;rotatable=1;deletable=1;editable=1;locked=0;connectable=1;" vertex="1" parent="ZhhL7vkw0-_gBqO7Sj1o-31">
          <mxGeometry x="18" y="36" width="17" height="17" as="geometry" />
        </mxCell>
        <mxCell id="ZhhL7vkw0-_gBqO7Sj1o-9" value="x" style="whiteSpace=wrap;html=1;aspect=fixed;movable=1;resizable=1;rotatable=1;deletable=1;editable=1;locked=0;connectable=1;" vertex="1" parent="ZhhL7vkw0-_gBqO7Sj1o-31">
          <mxGeometry x="35" y="36" width="17" height="17" as="geometry" />
        </mxCell>
        <mxCell id="ZhhL7vkw0-_gBqO7Sj1o-11" value="&lt;font color=&quot;#ff0000&quot;&gt;b&lt;/font&gt;" style="whiteSpace=wrap;html=1;aspect=fixed;movable=1;resizable=1;rotatable=1;deletable=1;editable=1;locked=0;connectable=1;" vertex="1" parent="ZhhL7vkw0-_gBqO7Sj1o-31">
          <mxGeometry x="52" y="19" width="17" height="17" as="geometry" />
        </mxCell>
        <mxCell id="ZhhL7vkw0-_gBqO7Sj1o-12" value="&lt;font color=&quot;#ff0000&quot;&gt;c&lt;/font&gt;" style="whiteSpace=wrap;html=1;aspect=fixed;movable=1;resizable=1;rotatable=1;deletable=1;editable=1;locked=0;connectable=1;" vertex="1" parent="ZhhL7vkw0-_gBqO7Sj1o-31">
          <mxGeometry x="69" y="19" width="17" height="17" as="geometry" />
        </mxCell>
        <mxCell id="ZhhL7vkw0-_gBqO7Sj1o-13" value="&lt;font color=&quot;#ff0000&quot;&gt;d&lt;/font&gt;" style="whiteSpace=wrap;html=1;aspect=fixed;movable=1;resizable=1;rotatable=1;deletable=1;editable=1;locked=0;connectable=1;" vertex="1" parent="ZhhL7vkw0-_gBqO7Sj1o-31">
          <mxGeometry x="52" y="36" width="17" height="17" as="geometry" />
        </mxCell>
        <mxCell id="ZhhL7vkw0-_gBqO7Sj1o-14" value="&lt;font color=&quot;#ff0000&quot;&gt;e&lt;/font&gt;" style="whiteSpace=wrap;html=1;aspect=fixed;movable=1;resizable=1;rotatable=1;deletable=1;editable=1;locked=0;connectable=1;" vertex="1" parent="ZhhL7vkw0-_gBqO7Sj1o-31">
          <mxGeometry x="69" y="36" width="17" height="17" as="geometry" />
        </mxCell>
        <mxCell id="ZhhL7vkw0-_gBqO7Sj1o-15" value="x" style="whiteSpace=wrap;html=1;aspect=fixed;movable=1;resizable=1;rotatable=1;deletable=1;editable=1;locked=0;connectable=1;" vertex="1" parent="ZhhL7vkw0-_gBqO7Sj1o-31">
          <mxGeometry x="18" y="53" width="17" height="17" as="geometry" />
        </mxCell>
        <mxCell id="ZhhL7vkw0-_gBqO7Sj1o-16" value="x" style="whiteSpace=wrap;html=1;aspect=fixed;movable=1;resizable=1;rotatable=1;deletable=1;editable=1;locked=0;connectable=1;" vertex="1" parent="ZhhL7vkw0-_gBqO7Sj1o-31">
          <mxGeometry x="35" y="53" width="17" height="17" as="geometry" />
        </mxCell>
        <mxCell id="ZhhL7vkw0-_gBqO7Sj1o-17" value="x" style="whiteSpace=wrap;html=1;aspect=fixed;movable=1;resizable=1;rotatable=1;deletable=1;editable=1;locked=0;connectable=1;" vertex="1" parent="ZhhL7vkw0-_gBqO7Sj1o-31">
          <mxGeometry x="18" y="70" width="17" height="17" as="geometry" />
        </mxCell>
        <mxCell id="ZhhL7vkw0-_gBqO7Sj1o-18" value="x" style="whiteSpace=wrap;html=1;aspect=fixed;movable=1;resizable=1;rotatable=1;deletable=1;editable=1;locked=0;connectable=1;" vertex="1" parent="ZhhL7vkw0-_gBqO7Sj1o-31">
          <mxGeometry x="35" y="70" width="17" height="17" as="geometry" />
        </mxCell>
        <mxCell id="ZhhL7vkw0-_gBqO7Sj1o-19" value="x" style="whiteSpace=wrap;html=1;aspect=fixed;movable=1;resizable=1;rotatable=1;deletable=1;editable=1;locked=0;connectable=1;" vertex="1" parent="ZhhL7vkw0-_gBqO7Sj1o-31">
          <mxGeometry x="52" y="53" width="17" height="17" as="geometry" />
        </mxCell>
        <mxCell id="ZhhL7vkw0-_gBqO7Sj1o-20" value="&lt;font color=&quot;#ff0000&quot;&gt;f&lt;/font&gt;" style="whiteSpace=wrap;html=1;aspect=fixed;movable=1;resizable=1;rotatable=1;deletable=1;editable=1;locked=0;connectable=1;" vertex="1" parent="ZhhL7vkw0-_gBqO7Sj1o-31">
          <mxGeometry x="69" y="53" width="17" height="17" as="geometry" />
        </mxCell>
        <mxCell id="ZhhL7vkw0-_gBqO7Sj1o-21" value="x" style="whiteSpace=wrap;html=1;aspect=fixed;movable=1;resizable=1;rotatable=1;deletable=1;editable=1;locked=0;connectable=1;" vertex="1" parent="ZhhL7vkw0-_gBqO7Sj1o-31">
          <mxGeometry x="52" y="70" width="17" height="17" as="geometry" />
        </mxCell>
        <mxCell id="ZhhL7vkw0-_gBqO7Sj1o-22" value="x" style="whiteSpace=wrap;html=1;aspect=fixed;movable=1;resizable=1;rotatable=1;deletable=1;editable=1;locked=0;connectable=1;" vertex="1" parent="ZhhL7vkw0-_gBqO7Sj1o-31">
          <mxGeometry x="69" y="70" width="17" height="17" as="geometry" />
        </mxCell>
        <mxCell id="ZhhL7vkw0-_gBqO7Sj1o-23" value="&lt;font style=&quot;font-size: 10px;&quot;&gt;0&lt;/font&gt;" style="whiteSpace=wrap;html=1;aspect=fixed;strokeColor=none;movable=1;resizable=1;rotatable=1;deletable=1;editable=1;locked=0;connectable=1;" vertex="1" parent="ZhhL7vkw0-_gBqO7Sj1o-31">
          <mxGeometry y="19" width="17" height="17" as="geometry" />
        </mxCell>
        <mxCell id="ZhhL7vkw0-_gBqO7Sj1o-24" value="&lt;font style=&quot;font-size: 10px;&quot;&gt;1&lt;/font&gt;" style="whiteSpace=wrap;html=1;aspect=fixed;strokeColor=none;movable=1;resizable=1;rotatable=1;deletable=1;editable=1;locked=0;connectable=1;" vertex="1" parent="ZhhL7vkw0-_gBqO7Sj1o-31">
          <mxGeometry y="36" width="17" height="17" as="geometry" />
        </mxCell>
        <mxCell id="ZhhL7vkw0-_gBqO7Sj1o-25" value="&lt;font style=&quot;font-size: 10px;&quot;&gt;2&lt;/font&gt;" style="whiteSpace=wrap;html=1;aspect=fixed;strokeColor=none;movable=1;resizable=1;rotatable=1;deletable=1;editable=1;locked=0;connectable=1;" vertex="1" parent="ZhhL7vkw0-_gBqO7Sj1o-31">
          <mxGeometry y="53" width="17" height="17" as="geometry" />
        </mxCell>
        <mxCell id="ZhhL7vkw0-_gBqO7Sj1o-26" value="&lt;font style=&quot;font-size: 10px;&quot;&gt;3&lt;/font&gt;" style="whiteSpace=wrap;html=1;aspect=fixed;strokeColor=none;movable=1;resizable=1;rotatable=1;deletable=1;editable=1;locked=0;connectable=1;" vertex="1" parent="ZhhL7vkw0-_gBqO7Sj1o-31">
          <mxGeometry y="70" width="17" height="17" as="geometry" />
        </mxCell>
        <mxCell id="ZhhL7vkw0-_gBqO7Sj1o-27" value="&lt;font style=&quot;font-size: 10px;&quot;&gt;0&lt;/font&gt;" style="whiteSpace=wrap;html=1;aspect=fixed;strokeColor=none;movable=1;resizable=1;rotatable=1;deletable=1;editable=1;locked=0;connectable=1;" vertex="1" parent="ZhhL7vkw0-_gBqO7Sj1o-31">
          <mxGeometry x="18" width="17" height="17" as="geometry" />
        </mxCell>
        <mxCell id="ZhhL7vkw0-_gBqO7Sj1o-28" value="&lt;font style=&quot;font-size: 10px;&quot;&gt;1&lt;/font&gt;" style="whiteSpace=wrap;html=1;aspect=fixed;strokeColor=none;movable=1;resizable=1;rotatable=1;deletable=1;editable=1;locked=0;connectable=1;" vertex="1" parent="ZhhL7vkw0-_gBqO7Sj1o-31">
          <mxGeometry x="35" width="17" height="17" as="geometry" />
        </mxCell>
        <mxCell id="ZhhL7vkw0-_gBqO7Sj1o-29" value="&lt;font style=&quot;font-size: 10px;&quot;&gt;2&lt;/font&gt;" style="whiteSpace=wrap;html=1;aspect=fixed;strokeColor=none;movable=1;resizable=1;rotatable=1;deletable=1;editable=1;locked=0;connectable=1;" vertex="1" parent="ZhhL7vkw0-_gBqO7Sj1o-31">
          <mxGeometry x="52" width="17" height="17" as="geometry" />
        </mxCell>
        <mxCell id="ZhhL7vkw0-_gBqO7Sj1o-30" value="&lt;font style=&quot;font-size: 10px;&quot;&gt;3&lt;/font&gt;" style="whiteSpace=wrap;html=1;aspect=fixed;strokeColor=none;movable=1;resizable=1;rotatable=1;deletable=1;editable=1;locked=0;connectable=1;" vertex="1" parent="ZhhL7vkw0-_gBqO7Sj1o-31">
          <mxGeometry x="69" width="17" height="17" as="geometry" />
        </mxCell>
        <mxCell id="ZhhL7vkw0-_gBqO7Sj1o-32" value="&lt;font style=&quot;font-size: 18px;&quot;&gt;a&lt;/font&gt;" style="rounded=0;whiteSpace=wrap;html=1;" vertex="1" parent="1">
          <mxGeometry x="428" y="434" width="107" height="39" as="geometry" />
        </mxCell>
        <mxCell id="ZhhL7vkw0-_gBqO7Sj1o-37" value="&lt;font style=&quot;font-size: 18px;&quot;&gt;4B&lt;/font&gt;" style="rounded=0;whiteSpace=wrap;html=1;" vertex="1" parent="1">
          <mxGeometry x="398" y="434" width="30" height="39" as="geometry" />
        </mxCell>
        <mxCell id="ZhhL7vkw0-_gBqO7Sj1o-42" value="&lt;font style=&quot;font-size: 18px;&quot;&gt;b&lt;/font&gt;" style="rounded=0;whiteSpace=wrap;html=1;" vertex="1" parent="1">
          <mxGeometry x="428" y="473" width="107" height="39" as="geometry" />
        </mxCell>
        <mxCell id="ZhhL7vkw0-_gBqO7Sj1o-43" value="&lt;font style=&quot;font-size: 18px;&quot;&gt;4B&lt;/font&gt;" style="rounded=0;whiteSpace=wrap;html=1;" vertex="1" parent="1">
          <mxGeometry x="398" y="473" width="30" height="39" as="geometry" />
        </mxCell>
        <mxCell id="ZhhL7vkw0-_gBqO7Sj1o-44" value="&lt;font style=&quot;font-size: 18px;&quot;&gt;c&lt;/font&gt;" style="rounded=0;whiteSpace=wrap;html=1;" vertex="1" parent="1">
          <mxGeometry x="428" y="512" width="107" height="39" as="geometry" />
        </mxCell>
        <mxCell id="ZhhL7vkw0-_gBqO7Sj1o-45" value="&lt;font style=&quot;font-size: 18px;&quot;&gt;4B&lt;/font&gt;" style="rounded=0;whiteSpace=wrap;html=1;" vertex="1" parent="1">
          <mxGeometry x="398" y="512" width="30" height="39" as="geometry" />
        </mxCell>
        <mxCell id="ZhhL7vkw0-_gBqO7Sj1o-46" value="&lt;font style=&quot;font-size: 18px;&quot;&gt;d&lt;/font&gt;" style="rounded=0;whiteSpace=wrap;html=1;" vertex="1" parent="1">
          <mxGeometry x="428" y="551" width="107" height="39" as="geometry" />
        </mxCell>
        <mxCell id="ZhhL7vkw0-_gBqO7Sj1o-47" value="&lt;font style=&quot;font-size: 18px;&quot;&gt;4B&lt;/font&gt;" style="rounded=0;whiteSpace=wrap;html=1;" vertex="1" parent="1">
          <mxGeometry x="398" y="551" width="30" height="39" as="geometry" />
        </mxCell>
        <mxCell id="ZhhL7vkw0-_gBqO7Sj1o-48" value="&lt;font style=&quot;font-size: 18px;&quot;&gt;e&lt;/font&gt;" style="rounded=0;whiteSpace=wrap;html=1;" vertex="1" parent="1">
          <mxGeometry x="428" y="590" width="107" height="39" as="geometry" />
        </mxCell>
        <mxCell id="ZhhL7vkw0-_gBqO7Sj1o-49" value="&lt;font style=&quot;font-size: 18px;&quot;&gt;4B&lt;/font&gt;" style="rounded=0;whiteSpace=wrap;html=1;" vertex="1" parent="1">
          <mxGeometry x="398" y="590" width="30" height="39" as="geometry" />
        </mxCell>
        <mxCell id="ZhhL7vkw0-_gBqO7Sj1o-50" value="&lt;font style=&quot;font-size: 18px;&quot;&gt;f&lt;/font&gt;" style="rounded=0;whiteSpace=wrap;html=1;" vertex="1" parent="1">
          <mxGeometry x="428" y="629" width="107" height="39" as="geometry" />
        </mxCell>
        <mxCell id="ZhhL7vkw0-_gBqO7Sj1o-51" value="&lt;font style=&quot;font-size: 18px;&quot;&gt;4B&lt;/font&gt;" style="rounded=0;whiteSpace=wrap;html=1;" vertex="1" parent="1">
          <mxGeometry x="398" y="629" width="30" height="39" as="geometry" />
        </mxCell>
        <mxCell id="ZhhL7vkw0-_gBqO7Sj1o-52" style="rounded=0;orthogonalLoop=1;jettySize=auto;html=1;exitX=1;exitY=0;exitDx=0;exitDy=0;entryX=0;entryY=0;entryDx=0;entryDy=0;endArrow=none;dashed=1;" edge="1" parent="1" source="ZhhL7vkw0-_gBqO7Sj1o-4" target="ZhhL7vkw0-_gBqO7Sj1o-37">
          <mxGeometry relative="1" as="geometry">
            <mxPoint x="308" y="425" as="sourcePoint" />
            <mxPoint x="403" y="399" as="targetPoint" />
          </mxGeometry>
        </mxCell>
        <mxCell id="ZhhL7vkw0-_gBqO7Sj1o-53" style="rounded=0;orthogonalLoop=1;jettySize=auto;html=1;exitX=1;exitY=1;exitDx=0;exitDy=0;entryX=0;entryY=1;entryDx=0;entryDy=0;endArrow=none;dashed=1;" edge="1" parent="1" source="ZhhL7vkw0-_gBqO7Sj1o-4" target="ZhhL7vkw0-_gBqO7Sj1o-51">
          <mxGeometry relative="1" as="geometry">
            <mxPoint x="318" y="435" as="sourcePoint" />
            <mxPoint x="413" y="409" as="targetPoint" />
          </mxGeometry>
        </mxCell>
        <mxCell id="ZhhL7vkw0-_gBqO7Sj1o-59" value="最近公共 post domaintor&lt;br&gt;（注：此处以 bb num = 4 为例）" style="rounded=0;whiteSpace=wrap;html=1;strokeColor=none;" vertex="1" parent="1">
          <mxGeometry x="574" y="582" width="181" height="41" as="geometry" />
        </mxCell>
      </root>
    </mxGraphModel>
  </diagram>
</mxfile>
